<svg version="1.1" xmlns="http://www.w3.org/2000/svg" xmlns:xlink="http://www.w3.org/1999/xlink" x="0px" y="0px" viewBox="0 0 240.2 52" style="enable-background:new 0 0 240.2 52;" xml:space="preserve" class="u-block  u-sm-hide">
                <g class="bluebeamBug">
                  <path d="M15.9,31.8V15.9h15.9v15.9H15.9z M15.9,0v7.9h23.8v31.8H7.9V0H0v47.6h47.6V0H15.9z"></path>
                </g>
                <g class="bluebeamName  u-sm-hide">
                  <path d="M74.4,22.7v-0.4c0,0,2.9-0.4,2.9-3.8v-4c0-4.2-2-6.2-6.2-6.2H60.1v31.1h11.4c4.2,0,6.2-2,6.2-6.2v-5.8C77.8,23.2,74.4,22.7,74.4,22.7z M65,12.7h4.7c2,0,2.7,0.7,2.7,2.7v2.7c0,2-0.7,2.7-2.7,2.7H65V12.7z M72.9,32.3c0,2-0.7,2.7-2.7,2.7H65v-9.8h5.2c2,0,2.7,0.7,2.7,2.7V32.3z"></path>
                  <g>
                    <polygon points="86.9,35 98.6,35 98.6,39.4 82,39.4 82,8.3 86.9,8.3 "></polygon>
                  </g>
                  <g>
                    <path d="M119.4,33.6c0,4.2-2,6.2-6.2,6.2H107c-4.2,0-6.2-2-6.2-6.2V8.3h4.9l0,24.5c0,2,0.7,2.7,2.7,2.7h3.6c2,0,2.7-0.7,2.7-2.7l0-24.5h4.9V33.6z"></path>
                  </g>
                  <g>
                    <polygon points="128.5,21.4 137.8,21.4 137.8,25.8 128.5,25.8 128.5,35 140.9,35 140.9,39.4 123.6,39.4 123.6,8.3 140.5,8.3 140.5,12.7 128.5,12.7 "></polygon>
                  </g>
                  <g>
                    <polygon points="171.4,21.4 180.8,21.4 180.8,25.8 171.4,25.8 171.4,35 183.9,35 183.9,39.4 166.5,39.4 166.5,8.3 183.4,8.3 183.4,12.7 171.4,12.7 "></polygon>
                  </g>
                  <path d="M199.3,8.3l-5.7,0L186,39.4l5.2,0l1.6-7.3h7.6l1.6,7.3l5.2,0L199.3,8.3z M193.6,27.6l2.7-12h0.4l2.7,12H193.6z"></path>
                  <g>
                    <polygon points="219.7,39.4 214.5,20.3 214,20.3 214,39.4 209.1,39.4 209.1,8.3 215.5,8.3 221.3,29.8 221.8,29.8 227.7,8.3 234,8.3 234,39.4 229.1,39.4 229.1,20.3 228.7,20.3 223.5,39.4 "></polygon>
                  </g>
                  <path d="M158.9,22.7v-0.4c0,0,2.9-0.4,2.9-3.8v-4c0-4.2-2-6.2-6.2-6.2h-10.9v31.1h11.4c4.2,0,6.2-2,6.2-6.2v-5.8C162.3,23.2,158.9,22.7,158.9,22.7z M149.6,12.7h4.7c2,0,2.7,0.7,2.7,2.7v2.7c0,2-0.7,2.7-2.7,2.7h-4.7V12.7z M157.5,32.3c0,2-0.7,2.7-2.7,2.7h-5.2v-9.8h5.2c2,0,2.7,0.7,2.7,2.7V32.3z"></path>
                  <g>
                    <path d="M122.3,51.9l2.3-6h0.9l2.5,6H127l-0.7-1.8h-2.5l-0.7,1.8H122.3z M124,49.4h2l-0.6-1.7c-0.2-0.5-0.3-0.9-0.4-1.2c-0.1,0.4-0.2,0.8-0.3,1.1L124,49.4z"></path>
                    <path d="M130.6,51.9v-6h0.8l3.2,4.7v-4.7h0.8v6h-0.8l-3.2-4.7v4.7H130.6z"></path>
                    <path d="M136.9,51.9v-6h4.3v0.7h-3.6v1.8h3.3v0.7h-3.3v2h3.7v0.7H136.9z"></path>
                    <path d="M142.6,51.9v-6h1.2l1.4,4.3c0.1,0.4,0.2,0.7,0.3,0.9c0.1-0.2,0.2-0.5,0.3-1l1.4-4.2h1.1v6h-0.8v-5l-1.7,5h-0.7l-1.7-5.1v5.1H142.6z"></path>
                    <path d="M149.7,51.9v-6h4.3v0.7h-3.6v1.8h3.3v0.7h-3.3v2h3.7v0.7H149.7z"></path>
                    <path d="M157,51.9v-5.3h-2v-0.7h4.8v0.7h-2v5.3H157z"></path>
                    <path d="M160.4,50l0.8-0.1c0,0.3,0.1,0.5,0.2,0.7c0.1,0.2,0.3,0.3,0.6,0.5s0.6,0.2,0.9,0.2c0.3,0,0.6,0,0.8-0.1s0.4-0.2,0.5-0.4s0.2-0.3,0.2-0.5c0-0.2-0.1-0.4-0.2-0.5c-0.1-0.1-0.3-0.3-0.5-0.4c-0.2-0.1-0.5-0.2-1.1-0.3c-0.6-0.1-0.9-0.3-1.2-0.4c-0.3-0.2-0.5-0.3-0.6-0.6c-0.1-0.2-0.2-0.5-0.2-0.7c0-0.3,0.1-0.6,0.3-0.9c0.2-0.3,0.4-0.5,0.8-0.6s0.7-0.2,1.1-0.2c0.4,0,0.8,0.1,1.2,0.2c0.3,0.1,0.6,0.4,0.8,0.6c0.2,0.3,0.3,0.6,0.3,0.9l-0.8,0.1c0-0.4-0.2-0.7-0.4-0.9c-0.2-0.2-0.6-0.3-1-0.3c-0.5,0-0.8,0.1-1.1,0.3s-0.3,0.4-0.3,0.6c0,0.2,0.1,0.4,0.2,0.5c0.2,0.1,0.6,0.3,1.2,0.4c0.6,0.1,1.1,0.3,1.3,0.4c0.3,0.2,0.6,0.4,0.8,0.6c0.2,0.2,0.2,0.5,0.2,0.9c0,0.3-0.1,0.6-0.3,0.9c-0.2,0.3-0.4,0.5-0.8,0.7c-0.3,0.2-0.7,0.2-1.2,0.2c-0.5,0-1-0.1-1.4-0.2c-0.4-0.2-0.7-0.4-0.9-0.7C160.5,50.7,160.4,50.4,160.4,50z"></path>
                    <path d="M170.7,49.8l0.8,0.2c-0.2,0.7-0.5,1.2-0.9,1.5c-0.4,0.3-1,0.5-1.6,0.5c-0.6,0-1.2-0.1-1.6-0.4c-0.4-0.3-0.7-0.6-0.9-1.1c-0.2-0.5-0.3-1-0.3-1.6c0-0.6,0.1-1.2,0.4-1.6c0.2-0.5,0.6-0.8,1-1.1c0.4-0.2,0.9-0.4,1.5-0.4c0.6,0,1.1,0.2,1.5,0.5c0.4,0.3,0.7,0.7,0.9,1.3l-0.8,0.2c-0.1-0.4-0.3-0.8-0.6-1c-0.3-0.2-0.6-0.3-1-0.3c-0.5,0-0.8,0.1-1.2,0.3c-0.3,0.2-0.5,0.5-0.7,0.9c-0.1,0.4-0.2,0.8-0.2,1.2c0,0.5,0.1,1,0.2,1.3c0.1,0.4,0.4,0.7,0.7,0.9s0.7,0.3,1,0.3c0.4,0,0.8-0.1,1.1-0.4C170.4,50.7,170.6,50.3,170.7,49.8z"></path>
                    <path d="M172.6,51.9v-6h0.8v2.5h3.1v-2.5h0.8v6h-0.8v-2.8h-3.1v2.8H172.6z"></path>
                    <path d="M178.8,51.9v-6h4.3v0.7h-3.6v1.8h3.3v0.7h-3.3v2h3.7v0.7H178.8z"></path>
                    <path d="M184.5,51.9v-6h0.8v3l3-3h1.1l-2.5,2.4l2.6,3.6h-1l-2.1-3l-1,1v2.1H184.5z"></path>
                    <path d="M197,49.8l0.8,0.2c-0.2,0.7-0.5,1.2-0.9,1.5c-0.4,0.3-1,0.5-1.6,0.5c-0.6,0-1.2-0.1-1.6-0.4c-0.4-0.3-0.7-0.6-0.9-1.1c-0.2-0.5-0.3-1-0.3-1.6c0-0.6,0.1-1.2,0.4-1.6c0.2-0.5,0.6-0.8,1-1.1c0.4-0.2,0.9-0.4,1.5-0.4c0.6,0,1.1,0.2,1.5,0.5c0.4,0.3,0.7,0.7,0.9,1.3l-0.8,0.2c-0.1-0.4-0.3-0.8-0.6-1c-0.3-0.2-0.6-0.3-1-0.3c-0.5,0-0.8,0.1-1.2,0.3c-0.3,0.2-0.5,0.5-0.7,0.9c-0.1,0.4-0.2,0.8-0.2,1.2c0,0.5,0.1,1,0.2,1.3c0.1,0.4,0.4,0.7,0.7,0.9s0.7,0.3,1,0.3c0.4,0,0.8-0.1,1.1-0.4C196.7,50.7,196.9,50.3,197,49.8z"></path>
                    <path d="M198.7,49c0-1,0.3-1.8,0.8-2.3c0.5-0.6,1.2-0.8,2.1-0.8c0.6,0,1.1,0.1,1.5,0.4c0.4,0.3,0.8,0.6,1,1.1c0.2,0.5,0.4,1,0.4,1.6c0,0.6-0.1,1.2-0.4,1.6c-0.2,0.5-0.6,0.8-1,1.1s-0.9,0.4-1.5,0.4c-0.6,0-1.1-0.1-1.5-0.4s-0.8-0.6-1-1.1C198.8,50,198.7,49.5,198.7,49z M199.5,49c0,0.7,0.2,1.3,0.6,1.7s0.9,0.6,1.5,0.6c0.6,0,1.1-0.2,1.5-0.6s0.6-1,0.6-1.8c0-0.5-0.1-0.9-0.2-1.3c-0.2-0.4-0.4-0.6-0.7-0.8c-0.3-0.2-0.7-0.3-1.1-0.3c-0.6,0-1,0.2-1.5,0.6C199.7,47.4,199.5,48.1,199.5,49z"></path>
                    <path d="M205.5,51.9v-6h1.2l1.4,4.3c0.1,0.4,0.2,0.7,0.3,0.9c0.1-0.2,0.2-0.5,0.3-1l1.4-4.2h1.1v6h-0.8v-5l-1.7,5H208l-1.7-5.1v5.1H205.5z"></path>
                    <path d="M212.7,51.9v-6h2.3c0.4,0,0.7,0,0.9,0.1c0.3,0,0.5,0.1,0.7,0.3c0.2,0.1,0.4,0.3,0.5,0.6c0.1,0.2,0.2,0.5,0.2,0.8c0,0.5-0.2,0.9-0.5,1.3c-0.3,0.4-0.9,0.5-1.8,0.5h-1.5v2.4H212.7z M213.5,48.7h1.6c0.5,0,0.9-0.1,1.1-0.3c0.2-0.2,0.3-0.5,0.3-0.8c0-0.3-0.1-0.5-0.2-0.6c-0.1-0.2-0.3-0.3-0.5-0.4c-0.1,0-0.4-0.1-0.7-0.1h-1.5V48.7z"></path>
                    <path d="M217.1,51.9l2.3-6h0.9l2.5,6h-0.9l-0.7-1.8h-2.5l-0.7,1.8H217.1z M218.9,49.4h2l-0.6-1.7c-0.2-0.5-0.3-0.9-0.4-1.2c-0.1,0.4-0.2,0.8-0.3,1.1L218.9,49.4z"></path>
                    <path d="M223.5,51.9v-6h0.8l3.2,4.7v-4.7h0.8v6h-0.8l-3.2-4.7v4.7H223.5z"></path>
                    <path d="M231.4,51.9v-2.5l-2.3-3.5h1l1.2,1.8c0.2,0.3,0.4,0.7,0.6,1c0.2-0.3,0.4-0.7,0.7-1.1l1.2-1.8h0.9l-2.4,3.5v2.5H231.4z"></path>
                    <path d="M236.5,10.1c0-0.3,0.1-0.6,0.2-0.9s0.4-0.5,0.7-0.7c0.3-0.2,0.6-0.2,0.9-0.2c0.3,0,0.6,0.1,0.9,0.2c0.3,0.2,0.5,0.4,0.7,0.7c0.2,0.3,0.2,0.6,0.2,0.9c0,0.3-0.1,0.6-0.2,0.9c-0.2,0.3-0.4,0.5-0.7,0.7c-0.3,0.2-0.6,0.3-0.9,0.3c-0.3,0-0.6-0.1-0.9-0.3c-0.3-0.2-0.5-0.4-0.7-0.7C236.6,10.7,236.5,10.4,236.5,10.1z M236.8,10.1c0,0.3,0.1,0.5,0.2,0.8c0.1,0.2,0.3,0.4,0.6,0.6s0.5,0.2,0.8,0.2c0.3,0,0.5-0.1,0.8-0.2c0.2-0.1,0.4-0.3,0.6-0.6c0.1-0.2,0.2-0.5,0.2-0.8c0-0.3-0.1-0.5-0.2-0.8c-0.1-0.2-0.3-0.4-0.6-0.6s-0.5-0.2-0.8-0.2c-0.3,0-0.5,0.1-0.8,0.2s-0.4,0.3-0.6,0.6C236.9,9.5,236.8,9.8,236.8,10.1z M239.1,9.7c0,0.3-0.1,0.5-0.4,0.6l0.6,1h-0.5l-0.5-0.8h-0.2v0.8h-0.5V9h0.6c0.3,0,0.5,0.1,0.6,0.2S239.1,9.4,239.1,9.7z M238.1,10h0.2c0.1,0,0.2,0,0.3-0.1c0.1-0.1,0.1-0.1,0.1-0.2c0-0.1,0-0.2-0.1-0.2c-0.1,0-0.2-0.1-0.3-0.1h-0.2V10z"></path>
                  </g>
                </g>
                <g class="bluebeamNoLimits  u-sm-hide">
                  <path d="M18.9,31.1h-2.5L2.7,5.4l-0.1,0v25.6H0V0.4h2.5l13.7,25.7l0.1,0V0.4h2.5V31.1z"></path>
                  <path d="M44.2,20.1c0,3.7-0.9,6.6-2.6,8.5c-1.7,2-4.1,2.9-7.1,2.9c-3,0-5.3-1-7-2.9c-1.7-2-2.5-4.8-2.5-8.5v-8.6
                    c0-3.7,0.8-6.6,2.5-8.5c1.7-2,4-3,7-3c3,0,5.4,1,7.1,3c1.7,2,2.6,4.8,2.6,8.5V20.1z M41.7,11.4c0-3-0.6-5.3-1.9-6.8
                    c-1.2-1.5-3-2.3-5.4-2.3c-2.3,0-4,0.8-5.2,2.3c-1.2,1.5-1.8,3.8-1.8,6.8v8.7c0,3.1,0.6,5.4,1.8,6.9c1.2,1.5,2.9,2.3,5.2,2.3
                    c2.3,0,4.1-0.8,5.4-2.3c1.2-1.5,1.9-3.8,1.9-6.9V11.4z"></path>
                  <path d="M63.3,28.9h12.4v2.1H60.7V0.4h2.5V28.9z"></path>
                  <path d="M84.3,31.1h-2.5V0.4h2.5V31.1z"></path>
                  <path d="M94.9,0.4l8.5,26.8h0.1l8.5-26.8h3.3v30.6h-2.5V17.6l0.3-12.5l-0.1,0l-8.7,26h-1.7L94,5.1l-0.1,0l0.3,12.5
                    v13.5h-2.5V0.4H94.9z"></path>
                  <path d="M125.3,31.1h-2.5V0.4h2.5V31.1z"></path>
                  <path d="M149.7,2.7h-8.6v28.4h-2.5V2.7h-8.5V0.4h19.6V2.7z"></path>
                  <path d="M168,23.6c0-1.7-0.5-3-1.5-4.1c-1-1-2.7-2-5.1-2.8c-2.8-0.9-4.9-2-6.3-3.3c-1.4-1.4-2.2-3.2-2.2-5.4
                    c0-2.3,0.8-4.3,2.4-5.7c1.6-1.5,3.7-2.2,6.2-2.2c2.7,0,4.8,0.9,6.4,2.6c1.6,1.8,2.4,3.9,2.4,6.4l-0.1,0.1h-2.4c0-2-0.6-3.7-1.7-5
                    c-1.1-1.3-2.7-1.9-4.7-1.9c-1.9,0-3.4,0.5-4.5,1.6c-1.1,1.1-1.6,2.4-1.6,4.1c0,1.5,0.5,2.8,1.5,3.8s2.8,1.9,5.3,2.7
                    c2.7,0.8,4.8,2,6.2,3.4c1.4,1.4,2.1,3.3,2.1,5.7c0,2.5-0.8,4.4-2.5,5.8c-1.7,1.4-3.8,2.2-6.4,2.2c-2.6,0-4.8-0.8-6.7-2.3
                    c-1.9-1.5-2.8-3.8-2.7-6.7l0-0.1h2.4c0,2.4,0.7,4.2,2.1,5.3c1.4,1.1,3,1.7,5,1.7c1.9,0,3.4-0.5,4.6-1.6
                    C167.4,26.7,168,25.3,168,23.6z"></path>
                  <path d="M173.4,2.4c0-0.6,0.2-1,0.5-1.4c0.3-0.4,0.7-0.6,1.2-0.6c0.5,0,0.9,0.2,1.2,0.6c0.3,0.4,0.5,0.9,0.5,1.4
                    c0,0.6-0.2,1-0.5,1.4c-0.3,0.4-0.7,0.6-1.2,0.6c-0.5,0-0.9-0.2-1.2-0.6C173.5,3.5,173.4,3,173.4,2.4z M173.6,2.4
                    c0,0.5,0.1,0.9,0.4,1.3c0.3,0.3,0.6,0.5,1,0.5c0.4,0,0.7-0.2,1-0.5c0.3-0.3,0.4-0.8,0.4-1.3c0-0.5-0.1-0.9-0.4-1.3
                    c-0.3-0.3-0.6-0.5-1-0.5c-0.4,0-0.7,0.2-1,0.5C173.7,1.5,173.6,1.9,173.6,2.4z M174.7,2.6v0.9h-0.3V1.2h0.6c0.2,0,0.4,0.1,0.5,0.2
                    c0.1,0.1,0.2,0.3,0.2,0.5c0,0.1,0,0.2-0.1,0.3c-0.1,0.1-0.1,0.2-0.2,0.2c0.1,0,0.2,0.1,0.2,0.2c0,0.1,0.1,0.2,0.1,0.3v0.2
                    c0,0.1,0,0.1,0,0.2c0,0.1,0,0.1,0,0.1v0h-0.3c0,0,0-0.1,0-0.2c0-0.1,0-0.1,0-0.2V3c0-0.1,0-0.3-0.1-0.3c-0.1-0.1-0.2-0.1-0.3-0.1
                    H174.7z M174.7,2.3h0.4c0.1,0,0.2,0,0.3-0.1c0.1-0.1,0.1-0.2,0.1-0.3c0-0.2,0-0.3-0.1-0.3c-0.1-0.1-0.2-0.1-0.4-0.1h-0.4V2.3z"></path>
                </g>
              </svg>