<svg version="1.1"
           baseProfile="full"
           xmlns="http://www.w3.org/2000/svg"
           xmlns:xlink="http://www.w3.org/1999/xlink"
           viewBox="0 0 200 200">

           <circle cx="100" cy="100" r="80" fill="transparent" stroke-width="4" stroke="#ADADAD" />
                       <!--CODING IMAGE -->
            <g transform="translate(50, 150) scale(0.050000,-0.050000)"
              stroke="none" fill="#ADADAD">
              <path d="M1156 1601 c-24 -27 -436 -1109 -436 -1146 0 -65 92 -102 135 -55 10
              11 91 212 182 447 281 734 264 687 252 722 -6 17 -19 36 -29 41 -31 16 -85 12
              -104 -9z"/>
              <path d="M565 1590 c-11 -4 -143 -131 -292 -282 -251 -251 -273 -277 -273
              -308 0 -31 23 -57 276 -311 160 -160 286 -279 300 -282 56 -10 104 38 95 98
              -2 11 -107 127 -234 258 l-230 238 104 107 c57 59 161 166 231 237 69 72 128
              139 129 150 6 42 -11 76 -46 91 -19 8 -36 14 -37 13 -2 0 -12 -4 -23 -9z"/>
              <path d="M1374 1586 c-34 -15 -58 -64 -47 -94 4 -9 110 -124 236 -254 l229
              -238 -228 -236 c-126 -129 -232 -244 -236 -254 -19 -51 40 -113 96 -103 14 3
              140 122 300 282 254 254 276 280 276 311 0 32 -22 56 -277 311 -153 153 -287
              280 -298 283 -11 3 -34 -1 -51 -8z"/>
            </g>
</svg>