<svg xmlns="http://www.w3.org/2000/svg" xmlns:xlink="http://www.w3.org/1999/xlink" viewBox="0 0 150 200" preserveAspectRatio="xMidYMid meet"  ><defs id="svgEditorDefs"><path id="svgEditorClosePathDefs" stroke="black" fill="black" style="stroke-width: 1px;"/></defs><rect id="svgEditorBackground" x="0" y="0" width="1200" height="640" style="fill: none; stroke: none;"/><polygon stroke="black" stroke-width="0.25" id="e8_area2" style="fill: none;" points="235.958 350.943"/><g id="e36_group"/><g id="e1_group" transform="matrix(1 0 0 1 -912.901 -401.222)"><path d="M964.4059448242188,567.228759765625c1.6778037541204185,-19.1256938875498,3.30696997749385,-33.51161666588973,2.75,-47.5c-1.3069699774937362,-11.488383334110154,1.4178349188508719,-6.962793196772168,-7,-17.75c-5.167834918850872,-6.287206803227832,-12.285312277624826,-16.07187620283031,-17.75,-24.75c-4.964687722375061,-9.678123797169746,-6.171524906228456,-7.278234430202019,-0.75,-18.5c2.4215249062289104,-4.721765569797981,5.4720662416159485,-11.037343048764114,8.75,-15.000000000000057c5.527933758384165,-7.212656951235829,4.540386619947185,-4.062832541345529,13.499999999999773,-3.2499999999998863c8.45961338005327,1.3128325413456992,14.665416082600927,4.33376053457647,20.000000000000227,6c12.084583917399755,5.666239465423416,11.593167398896867,2.2039654405488136,10.499999999999886,10.99999999999983c-1.0931673988968669,5.296034559451186,-9.177443976073732,7.227360202177238,-16.499999999999886,6.250000000000114c-7.572556023926154,-0.4773602021771808,-4.523646650603496,-1.7379915165063267,-5.999999999999886,1.5c-0.9763533493967316,4.4879915165063835,-1.5645559208476243,4.149956927094195,3.7499999999998863,8.75c9.064555920847397,5.350043072905748,11.389440502224488,13.00799205950608,11.5,17" stroke="black" id="e2_curve3" style="fill: none; stroke-width: 2px; stroke-linecap: round;"/><path d="M964.6559448242188,440.478759765625c3.2616762418856524,-11.577502205725466,6.125959076008826,-16.149908635145493,9.75,-18.25c3.624040923991174,-2.1000913648544497,9.493025255670204,-3.0932208501962464,13.25,0.25c1.7569747443297956,1.8432208501961895,2.81108015758673,4.520279294496106,3,6.5c0.1889198424132701,1.979720705503894,-1.4614605896167632,6.115138984977193,-2,8.75c-0.5385394103834642,2.134861015022807,-1.6133305800763083,7.114359822285735,-2.75,9" stroke="black" id="e4_curve3" style="fill: none; stroke-width: 2px;"/><path d="M986.1559448242188,447.478759765625c-0.2710012980967349,-3.354800038218343,3.21618235205824,-10.546129068131847,8.75,-15.5c8.783817647941646,-3.703870931868039,15.11477267176815,0.814430879974509,16.249999999999886,9.499999999999943c-3.3647726717681508,9.435569120025605,-7.403900606715638,15.584699109885094,-10.749999999999659,23.500000000000057c-3.346099393284476,5.415300890115134,-6.127173933969061,11.515635805093439,-10.500000000000227,15.250000000000057c-4.872826066030939,2.234364194906391,-11.818209247819027,-1.9474871571645167,-11,-7.750000000000057c1.0682092478191407,-5.802512842835597,0.27037110110563845,-3.4834579393735225,1.7499999999998863,-7.999999999999943" stroke="black" id="e6_curve3" style="fill: none; stroke-width: 2px;"/><path d="M1007.4059448242188,450.478759765625c1.764981581579832,-3.166406971351307,3.2493056617294087,-8.546885322407832,8.000000000000114,-8.75c5.250694338270478,0.7968853224078885,9.78080707765264,4.5122760424322905,11.999999999999886,10c-0.5308070776527529,6.7377239575677095,-3.072265365195335,8.749056089922021,-6.500000000000114,14.25c-2.4277346348047786,3.6259439100780924,-3.39096423030162,6.4029088168720705,-6.999999999999773,10.500000000000057c-2.8590357696982664,3.8470911831279295,-5.458123574112847,7.774335730155769,-9.75,10.749999999999943c-5.541876425887494,-0.2743357301557694,-9.125878826610005,-2.7494631749646032,-9.750000000000114,-6c-0.12412117338999451,-3.2505368250354536,4.107771114376533,-13.39078137466555,6.5,-17.24999999999983" stroke="black" id="e8_curve3" style="fill: none; stroke-width: 2px;"/><path d="M1020.1384396953954,464.5831369583808c3.1655502344281103,-2.6012726823265666,6.290984530211745,-9.467617125726463,9.678543347321693,-8.188813298530931c3.5721509909490123,0.23569862093881966,8.102263730331288,3.9510893409632217,9.400033145857378,8.884534422461911c0.5397480301639916,4.244790911395739,-0.62520576061479,7.755294822466908,-2.2052967182585235,10.027122242817995c-4.039082485974859,4.646844615568,-7.084999421623479,8.844524130464436,-10.378627365161265,14.98472051984919c-5.17903995079223,6.220134584566324,-7.000353369317395,7.06495717820809,-11.995738843472736,8.481725891572353c-3.858185796909652,-0.49918728111549626,-5.78839482294029,-1.8828520249318785,-7.418749711700798,-6.658060819368302c0.667022188101555,-5.601868494917255,3.7350268464467717,-11.18302487485181,7.06664456942849,-16.673022948307732" stroke="black" id="e22_curve3" style="fill: none; stroke-width: 2px; stroke-linecap: round;" transform="matrix(0.899129 0.0121373 -0.0164418 0.854666 112.525 55.1183)"/><path d="M1029.480712890625,483.7380981445312c-4.030792737187085,9.387995346887294,-7.168522572822212,14.935644526317901,-10.74993896484375,21.000000000000057c-3.831416392021538,6.814355473682099,-8.53092289812298,6.833859247588407,-7.000000000000114,16.25c0.030922898122867082,6.416140752411593,0.8319419502395249,25.71154223866222,1.5000000000001137,34.25c0.6680580497604751,8.538457761337781,2.0457281992846674,19.559818957531547,3.5,28" stroke="black" id="e10_curve3" style="fill: none; stroke-width: 2px; stroke-linecap: round;"/><path d="M998.2307739257812,512.6130981445312c-2.81036624482158,3.691429536760438,-5.248381150693376,4.9062864432427205,-7.25,5.875c-0.1266188493068512,4.8437135567572795,-0.3766188493067375,11.03128644324272,0,15.75" stroke="black" id="e12_curve3" style="fill: none; stroke-width: 2px; stroke-linecap: round; stroke-linejoin: round;"/></g></svg>