<svg xmlns="http://www.w3.org/2000/svg" xmlns:xlink="http://www.w3.org/1999/xlink" viewBox="0 0 160 160" preserveAspectRatio="xMidYMid meet"  >
  <defs id="svgEditorDefs"><path id="svgEditorClosePathDefs" stroke="black" fill="black" style="stroke-width: 1px;"/>
  </defs>
  <rect id="svgEditorBackground" x="0" y="0" width="1200" height="640" style="stroke: none; fill: none;"/><polygon stroke="black" stroke-width="0.25" id="e8_area2" style="fill: none;" points="235.958 350.943"/><path d="M782.1866455078127,456.09467605064657c-2.4184864111869047,5.52255023784511,-5.428261227179178,8.364954446744832,-7.75,11c-2.0717387728210497,2.1350455532551678,-5.690682074259939,6.578410266766355,-7,9.5c-1.309317925740061,2.9215897332335885,-1.568203662787937,3.827689812901326,-2,8" stroke="black" id="e44_curve3" style="fill: none; stroke-width: 2px;" transform="matrix(1 0 0 1 -707 -383)"/><path d="M770.9815673828128,440.62037185142776c8.767958612418397,12.362640657979512,12.551475345553172,17.224909978854896,16.812499999999886,23.125000000000057c0.2610246544469419,-4.974909978854953,1.0646525162528633,-9.953972425803386,8.5625,-13.374999999999943c-10.87715251625309,-3.796027574196785,-15.118581570888978,-6.162339729707753,-25.625,-10.125000000000114" stroke="black" id="e59_curve3" style="fill: none; stroke-width: 2px; stroke-linecap: round; stroke-linejoin: round;" transform="matrix(1 0 0 1 -707 -383)"/><path d="M771.8292236328127,441.33512404869344c1.6721376984960443,2.363999365008908,2.4877225868452797,3.8977662662076114,5.4375,7.625c-0.3002225868452798,-2.7727662662075545,1.0886315989517925,-3.988003031240453,2.8749999999997726,-4.875000000000114Z" stroke="black" id="e67_curve3" style="stroke-linecap: round; stroke-width: 1px;" fill="black" transform="matrix(1 0 0 1 -707 -383)"/>

  <g id="e2_group" transform="matrix(1 0 0 1 -707 -383)"><path d="M746.1866455078126,484.84467605064657c-0.3166729403791351,-11.06705139386986,-5.246943969463928,-16.992689216016345,-11.749999999999886,-27.5c-8.003056030535618,-13.007310783983655,-11.013494310341684,-32.143357295747364,-1.25,-44.50000000000006c8.763494310341684,-11.356642704252351,22.828309705966603,-14.001234281559675,33.00000000000034,-11.75c8.171690294032715,1.2512342815598458,16.85936728622778,8.34973415804808,20.749999999999773,17.250000000000057c4.390632713771538,9.650265841951978,1.9298309044254438,20.092935803346222,-1.0000000000001137,27.749999999999943" stroke="black" id="e38_curve3" style="fill: none; stroke-width: 1.95px;"/><path d="M745.4160156250002,491.39258864830276c-2.263507231181734,22.232735889599155,3.539119178365013,29.33979310106605,11.375,29.375000000000057c8.085880821634987,-0.2147931010659932,13.057412153027599,-6.445804679140906,10.624999999999886,-29.624999999999943" stroke="black" id="e48_curve3" style="fill: none; stroke-width: 2.02px;"/><path d="M754.3510742187502,484.7724409432247c0.6815492572058023,-3.3060583570170365,0.40165453883048485,-7.948897520513924,0.6249999999998865,-12.374999999999943c0.22334546116974258,-6.926102479486133,-3.764097118090035,-11.195684973725122,-7.437499999999886,-14.937500000000114c-3.5484028819098508,-4.054315026274821,-5.494935209621758,-6.85828445744869,-5.6875,-11.8125c0.18243520962164442,-4.829215542551083,1.6680536310932441,-8.26825960035967,3.8749999999998863,-10.499999999999886c2.0819463689069835,-1.8567403996402163,4.7121800585019855,-1.835739512899238,6.437500000000114,1.4375c3.6003199414983555,10.960739512899124,-6.739827473759192,10.641434960360698,-3.3125000000001137,0.5c3.489827473759192,-6.516434960360812,9.096175512108971,-5.200054246006573,10.875000000000114,-0.18750000000011371c4.716324487891029,10.137554246006744,-7.10758113627594,11.200269221154144,-3.6875,0.06249999999994318c4.6700811362755985,-9.450269221154088,13.789812296538798,0.5150287947384413,15.125,3.6875000000001137" stroke="black" id="e52_curve3" style="fill: none; stroke-width: 2px;"/><path d="M787.837097167969,463.84784987877157c22.954272913092154,19.91658379810474,36.56002608694507,31.011936248360144,67.0625,54c-0.24752608694507222,-4.7619362483601435,3.493241896451991,-10.873671529343483,9.5625,-13.3125c4.319258103548009,2.5611715293434827,7.318252379992259,4.656009141547543,9.968749999999773,6.875c-0.2245023799916908,11.062740858452457,-18.519074691338346,19.527596863162103,-7.343749999999886,5.3125c14.362824691339483,-16.152596863162103,4.020783571945572,8.711989357640846,-3.187499999999659,7.71875c-3.770783571945799,-2.368239357640846,-5.688762143923668,-4.099916830548864,-8.937500000000114,-6.46875" stroke="black" id="e61_curve3" style="fill: none; stroke-width: 2px; stroke-linecap: round; stroke-linejoin: round;"/><line id="e62_line" x1="796.3070678710938" y1="450.35107421875" x2="861.4960327148438" y2="501.9130554199219" stroke="black" style="stroke-width: 2px; fill: none; stroke-linecap: round;"/><line id="e63_line" x1="859.5422973632812" y1="507.6795349121094" x2="808.1672973632812" y2="467.9295654296875" stroke="black" style="stroke-width: 2px; fill: none; stroke-linecap: round;"/><path d="M739.379917996803,500.14941061982c3.3403212744011626,2.5025016429679,8.106586728817433,3.7547607338590296,13.249999999999886,3.875c5.893413271182794,0.2452392661409704,10.524060326242648,-0.7968457009004625,14.000000000000227,-2.875" stroke="black" id="e69_curve3" style="fill: none; stroke-width: 2px; stroke-linecap: round;" transform="matrix(0.939965 0.218269 -0.210959 0.97254 154.321 -156.734)"/><path d="M740.9017769541468,507.7648675454038c3.3403212744011626,2.5025016429679,8.106586728817433,3.7547607338590296,13.249999999999886,3.875c5.893413271182794,0.2452392661409704,10.524060326242648,-0.7968457009004625,14.000000000000227,-2.875" stroke="black" id="e3_curve3" style="fill: none; stroke-width: 2px; stroke-linecap: round;" transform="matrix(0.939965 0.218269 -0.210958 0.97254 154.315 -156.734)"/><path d="M741.0075705482009,515.5696053186521c3.3403212744011626,2.5025016429679,8.106586728817433,3.7547607338590296,13.249999999999886,3.875c5.893413271182794,0.2452392661409704,10.524060326242648,-0.7968457009004625,14.000000000000227,-2.875" stroke="black" id="e4_curve3" style="fill: none; stroke-width: 2px; stroke-linecap: round;" transform="matrix(0.895307 0.218269 -0.200935 0.97254 184.006 -156.734)"/></g>

  <path d="M748.4366455078125,491.8446760506464c-8.12919138844586,-0.39549733816596705,-11.752388352236153,-6.881372775201385,2.2500000000002274,-7.2499999999998295c6.627388352236153,-0.36862722479844484,10.547416057393662,0.04564249035320246,14.75,0.25c4.202583942606225,-0.04564249035320246,8.106488870564931,4.696945530522669,1.5,6.750000000000057c-4.606488870564931,0.8030544694772175,-8.790880396441139,1.025867520339773,-13.124999999999773,0.6249999999999433Z" stroke="black" id="e46_curve3" style="fill: none; stroke-width: 2px;" transform="matrix(1 0 0 1 -707 -383)"/></svg>