<svg version="1.1"
           baseProfile="full"
           xmlns="http://www.w3.org/2000/svg"
           xmlns:xlink="http://www.w3.org/1999/xlink"
           viewBox="0 0 200 200">

            <circle cx="100" cy="100" r="80" fill="transparent" stroke-width="4" stroke="#ADADAD" />
                       <!--CODING IMAGE -->
            <g transform="translate(50.000000,150.000000) scale(0.0195313,-0.01953125)"
              stroke="none" fill="#ADADAD">
              <path d="M3724 4546 c-63 -20 -118 -64 -249 -195 l-120 -121 438 -438 438
              -437 137 140 c169 171 187 203 187 325 0 146 -3 149 -284 433 -281 284 -302
              298 -430 304 -45 2 -92 -3 -117 -11z"/>
              <path d="M2025 2900 l-1210 -1210 438 -437 437 -438 1212 1213 1213 1212 -313
              312 -312 313 -1150 -1150 -1150 -1150 -60 60 -60 60 1150 1150 1150 1150 -63
              63 c-34 34 -65 62 -67 62 -3 0 -550 -545 -1215 -1210z"/>
              <path d="M707 1539 c-23 -124 -147 -972 -144 -976 5 -4 997 144 1003 150 2 2
              -190 196 -425 431 l-428 428 -6 -33z"/>
            </g>
</svg>