<svg version="1.1"
           baseProfile="full"
           xmlns="http://www.w3.org/2000/svg"
           xmlns:xlink="http://www.w3.org/1999/xlink"
           viewBox="0 0 200 200">

            <circle cx="100" cy="100" r="80" fill="transparent" stroke-width="4" stroke="#ADADAD" />

                       <!--CODING IMAGE -->
            <g transform="translate(50.000000,150.000000) scale(0.050000,-0.050000)"
             stroke="none" fill="#ADADAD">
              <path d="M968 1766 c-22 -11 -23 -18 -28 -130 -4 -102 -8 -120 -24 -132 -16
              -11 -68 -14 -255 -14 l-236 0 -208 -488 c-139 -326 -207 -498 -207 -522 0 -29
              10 -44 68 -100 161 -159 369 -200 550 -109 113 56 222 162 222 215 0 12 -83
              217 -185 454 -102 237 -185 438 -185 446 0 31 40 34 520 34 475 0 520 -3 520
              -33 0 -7 -83 -206 -185 -444 -116 -271 -185 -444 -185 -465 0 -28 11 -43 70
              -100 82 -79 185 -134 283 -151 140 -24 293 32 417 151 61 58 70 72 70 102 0
              24 -69 196 -208 520 l-208 485 -243 5 c-225 5 -244 6 -257 24 -10 14 -14 50
              -14 127 0 73 -4 110 -12 116 -22 17 -56 21 -80 9z m-376 -868 c86 -202 145
              -353 142 -362 -6 -15 -40 -16 -307 -14 -274 3 -302 5 -305 20 -3 16 270 668
              291 696 6 7 15 11 20 9 6 -2 77 -159 159 -349z m995 340 c24 -32 295 -689 290
              -702 -6 -14 -44 -16 -307 -16 -265 0 -301 2 -307 16 -3 9 45 134 112 292 192
              449 188 441 212 410z"/>
            </g>
</svg>