<svg xmlns="http://www.w3.org/2000/svg" xmlns:xlink="http://www.w3.org/1999/xlink" viewbox="0 0 1030 600" height="100%" scale=".5" width="100%" viewBox="0 0 600 600" preserveAspectRatio="xMidYMid meet"  ><rect id="svgEditorBackground" x="-202" y="-100" width="600" height="600" style="fill: none; stroke: none;"/> 

  

<g id="logo" transform="matrix(0.93487 0.00264554 -0.00264554 0.93487 209.908 111.776)"><path id="E" fill="#ADADAD" d="M195.70106200000004,-15.974417239999978L183.01457,-15.974417239999978L51.481027,-15.974417239999978L38.7945356,-15.974417239999978L37.7473606,-3.2668072999999787L3.8188912000000004,408.459754L2.77171622,421.167364L15.458207600000001,421.167364L151.863363,421.167364L164.54985500000004,421.167364L165.59703000000002,408.459754L168.210779,376.74156000000005L169.25795400000004,364.03395L156.571462,364.03395L64.446539,363.983119L75.36647969999999,231.46816300000003L136.43906100000004,231.46816300000003L149.12555200000003,231.46816300000003L150.172727,218.76055300000002L152.83674000000002,186.43239400000002L153.883915,173.72478400000003L141.197424,173.72478400000003L80.2082777,173.63371200000003L91.15479619999999,41.15899700000003L178.306471,41.15899700000003L190.99296300000003,41.15899700000003L192.040138,28.45138710000002L194.653887,-3.2668072999999787L195.70106200000004,-15.974417239999978Z" transform="matrix(1 0 0 0.824233 -5.77776 33.6232)"/><circle cx="100" cy="200" r="300" stroke="#ADADAD" stroke-width="40" fill="transparent" id="circle" transform="matrix(1 0 0 1 -2.88883 0)"/></g><g id="e14_g" transform="matrix(0.93487 0.00264554 -0.00264554 0.93487 209.908 114.425)"><path id="e14_path" fill="#ADADAD" d="M195.70106200000004,-15.974417239999978L183.01457,-15.974417239999978L51.481027,-15.974417239999978L38.7945356,-15.974417239999978L37.7473606,-3.2668072999999787L3.8188912000000004,408.459754L2.77171622,421.167364L15.458207600000001,421.167364L151.863363,421.167364L164.54985500000004,421.167364L165.59703000000002,408.459754L168.210779,376.74156000000005L169.25795400000004,364.03395L156.571462,364.03395L64.446539,363.983119L75.36647969999999,231.46816300000003L136.43906100000004,231.46816300000003L149.12555200000003,231.46816300000003L150.172727,218.76055300000002L152.83674000000002,186.43239400000002L153.883915,173.72478400000003L141.197424,173.72478400000003L80.2082777,173.63371200000003L91.15479619999999,41.15899700000003L178.306471,41.15899700000003L190.99296300000003,41.15899700000003L192.040138,28.45138710000002L194.653887,-3.2668072999999787L195.70106200000004,-15.974417239999978Z" transform="matrix(1 0 0 0.824233 -5.77776 33.6232)"/><circle cx="100" cy="200" r="300" stroke="#ADADAD" stroke-width="40" fill="transparent" id="e14_circle" transform="matrix(1 0 0 1 -2.88883 0)"/></g></svg>