 <svg version="1.0" xmlns="http://www.w3.org/2000/svg" width="700.000000pt" height="3405.000000pt" viewBox="0 0 700.000000 3405.000000" preserveAspectRatio="xMidYMid meet">
<metadata>
Created by potrace 1.12, written by Peter Selinger 2001-2015
</metadata>
<g transform="translate(0.000000,3405.000000) scale(0.100000,-0.100000)" fill="#000000" stroke="none">
<path d="M3510 32828 c-143 -15 -351 -61 -445 -99 -11 -4 -31 -11 -45 -15 -57
-16 -220 -93 -298 -141 -29 -18 -55 -33 -57 -33 -8 0 -183 -128 -259 -190
-137 -111 -415 -427 -506 -575 -90 -145 -162 -300 -214 -460 -121 -370 -129
-856 -20 -1235 8 -30 19 -68 23 -85 41 -151 182 -428 304 -595 115 -158 356
-398 515 -515 288 -211 569 -325 943 -385 85 -13 538 -13 632 0 320 46 651
169 874 326 35 24 66 44 69 44 8 0 157 120 246 198 89 77 232 246 319 377 343
515 449 1193 282 1810 -87 324 -245 603 -496 875 -338 367 -746 598 -1192 674
-211 36 -470 46 -675 24z m535 -263 c166 -23 205 -32 332 -73 113 -37 266
-106 373 -169 235 -136 533 -432 673 -667 57 -97 114 -211 141 -286 15 -41 31
-84 36 -95 21 -53 60 -226 79 -353 25 -163 9 -534 -29 -682 -5 -19 -16 -64
-25 -100 -63 -252 -211 -534 -391 -745 -37 -44 -84 -93 -103 -110 -19 -16 -64
-56 -100 -88 -94 -83 -298 -216 -421 -274 -262 -124 -530 -183 -836 -183 -192
0 -312 14 -491 57 -172 41 -398 139 -528 229 -38 26 -86 58 -105 71 -19 14
-88 72 -153 131 -122 110 -224 224 -314 347 -51 72 -183 309 -183 330 0 6 -4
15 -9 21 -18 20 -81 221 -105 339 -51 245 -49 621 5 830 43 169 72 247 139
382 87 177 176 300 354 493 137 149 287 275 423 357 168 102 406 193 583 223
36 6 88 15 115 19 83 14 430 12 540 -4z"></path>
<path d="M3703 31949 c-35 -4 -91 -15 -125 -24 -35 -10 -81 -21 -103 -27 -22
-5 -44 -13 -50 -19 -5 -5 -17 -9 -27 -9 -31 0 -202 -87 -297 -150 -169 -114
-331 -298 -421 -480 -23 -47 -46 -93 -51 -102 -5 -10 -9 -23 -9 -29 0 -6 -6
-25 -14 -42 -14 -34 -38 -132 -57 -234 -6 -35 -15 -63 -19 -63 -4 0 -41 34
-83 75 -89 89 -117 96 -180 44 -31 -26 -37 -37 -37 -69 0 -36 11 -51 171 -223
181 -196 202 -211 262 -188 26 10 264 223 345 308 56 60 57 97 5 148 -55 54
-82 49 -172 -30 -41 -36 -78 -65 -83 -65 -18 0 -4 79 40 220 46 148 126 287
232 403 61 67 212 182 290 222 95 47 103 51 175 73 132 40 207 52 335 52 293
0 570 -116 776 -325 93 -95 183 -230 224 -335 7 -19 19 -48 25 -65 7 -16 20
-64 30 -105 9 -41 20 -94 26 -118 32 -145 -6 -386 -93 -587 -91 -211 -297
-424 -508 -526 -99 -47 -165 -68 -308 -98 -30 -6 -107 -11 -172 -11 -65 0
-142 5 -172 11 -254 53 -360 104 -565 275 -92 76 -118 81 -169 30 -47 -47 -47
-98 -1 -147 81 -86 226 -188 357 -251 79 -37 192 -78 217 -78 12 0 37 -6 55
-14 61 -26 278 -38 419 -22 69 7 135 19 147 25 11 6 31 11 44 11 53 0 225 75
363 159 163 99 362 317 450 491 15 30 31 63 36 72 59 116 108 352 108 523 0
122 -28 308 -59 395 -110 305 -262 506 -510 675 -46 31 -93 61 -104 66 -12 5
-28 13 -36 18 -30 18 -131 61 -144 61 -8 0 -27 6 -43 14 -35 18 -181 51 -286
65 -88 12 -143 12 -234 0z"></path>
<path d="M3713 31438 c-11 -13 -25 -32 -30 -43 -6 -12 -10 -190 -11 -425 -2
-391 -1 -406 18 -438 35 -58 60 -62 345 -62 208 0 261 3 285 15 66 34 80 106
31 156 l-29 29 -209 0 c-114 0 -213 4 -220 8 -8 5 -12 105 -15 371 l-3 363
-30 24 c-40 32 -103 33 -132 2z"></path>
<path d="M3485 28110 c-22 -5 -74 -14 -115 -20 -173 -29 -351 -86 -520 -167
-63 -31 -129 -66 -147 -79 -17 -13 -34 -24 -38 -24 -8 0 -98 -63 -189 -133
-134 -103 -376 -352 -486 -501 -111 -151 -220 -348 -261 -471 -7 -22 -16 -44
-20 -50 -3 -5 -14 -37 -24 -70 -9 -33 -23 -80 -30 -105 -8 -25 -21 -88 -30
-140 -9 -52 -20 -119 -26 -149 -23 -137 -6 -517 31 -690 6 -25 15 -68 22 -96
13 -61 64 -224 78 -247 6 -10 10 -22 10 -28 0 -28 137 -285 214 -400 157 -237
460 -527 707 -678 53 -32 224 -118 304 -153 68 -29 248 -81 355 -102 162 -33
215 -37 442 -37 224 0 343 10 468 39 128 29 184 43 204 51 11 4 46 15 76 25
30 10 59 22 64 26 6 5 17 9 25 9 26 0 260 122 356 185 363 238 621 533 798
915 230 494 261 1129 81 1650 -61 176 -167 375 -288 539 -223 305 -532 566
-836 708 -106 50 -131 60 -215 88 -44 15 -89 30 -100 35 -35 13 -195 47 -330
69 -70 11 -521 12 -580 1z m550 -260 c72 -11 153 -25 180 -30 108 -20 351
-109 427 -157 21 -13 40 -23 43 -23 11 0 163 -98 240 -155 114 -84 307 -280
395 -400 24 -33 46 -62 50 -65 3 -3 27 -39 52 -80 114 -185 194 -391 231 -590
33 -178 37 -222 37 -401 -1 -417 -102 -763 -317 -1086 -92 -137 -121 -172
-233 -282 -303 -297 -650 -473 -1071 -540 -100 -16 -507 -14 -620 4 -132 20
-345 78 -365 98 -4 4 -13 7 -21 7 -27 0 -227 104 -322 168 -383 255 -666 617
-800 1022 -66 197 -91 370 -91 613 1 239 17 355 81 562 60 197 173 408 308
575 92 114 279 305 367 375 244 195 514 320 799 370 171 30 201 33 350 34 104
0 190 -6 280 -19z"></path>
<path d="M4658 27289 c-61 -45 -68 -71 -68 -246 l0 -159 -43 -42 c-23 -23 -48
-42 -55 -42 -6 0 -44 21 -84 47 -167 109 -246 141 -438 179 -85 18 -365 13
-435 -6 -22 -6 -56 -15 -75 -19 -40 -10 -164 -61 -212 -88 -133 -74 -314 -239
-392 -357 -259 -391 -259 -871 -1 -1261 60 -90 197 -228 296 -298 176 -124
385 -187 622 -188 187 0 304 24 482 101 11 4 27 11 35 14 69 28 243 167 322
259 79 92 137 182 180 282 41 93 78 221 78 269 0 18 7 55 15 82 19 62 19 157
0 209 -8 22 -14 63 -15 92 0 29 -4 62 -9 75 -5 13 -19 55 -31 93 -28 88 -89
211 -140 284 -22 31 -40 61 -40 67 0 5 21 31 48 56 l47 47 178 3 179 3 29 33
c40 45 40 98 0 141 -26 28 -35 31 -90 31 -75 0 -77 10 -15 70 56 55 66 74 69
122 2 33 -3 43 -36 73 -58 52 -84 48 -163 -26 -36 -33 -70 -58 -76 -54 -5 3
-10 27 -10 52 0 41 -5 51 -40 85 -46 43 -72 47 -112 17z m-724 -470 c130 -25
296 -95 365 -156 l36 -32 -105 -106 c-96 -97 -108 -106 -134 -100 -16 3 -37
12 -45 19 -22 20 -122 51 -207 66 -61 11 -83 10 -160 -5 -140 -27 -223 -71
-319 -168 -123 -126 -178 -254 -178 -412 0 -152 53 -281 167 -402 81 -86 173
-141 281 -168 76 -19 215 -19 287 0 186 48 341 187 403 360 10 28 22 54 27 60
4 5 8 70 8 145 -1 103 -4 140 -15 154 -8 11 -15 28 -15 38 0 10 -14 47 -32 83
l-32 65 104 105 c58 58 110 105 117 105 25 0 71 -77 144 -235 5 -11 18 -56 30
-100 40 -156 23 -404 -37 -535 -95 -207 -190 -326 -343 -427 -83 -56 -235
-123 -277 -123 -12 0 -38 -7 -57 -15 -26 -11 -74 -15 -172 -15 -98 0 -146 4
-172 15 -19 8 -45 15 -57 15 -25 0 -108 31 -180 67 -83 42 -166 105 -246 189
-72 75 -170 219 -170 249 0 7 -4 16 -9 19 -5 3 -19 37 -30 76 -63 205 -47 460
38 645 114 245 355 449 596 505 28 7 64 16 80 20 46 12 241 11 309 -1z m-55
-532 c84 -22 80 -31 -72 -186 -143 -145 -153 -162 -126 -214 25 -49 51 -67 96
-67 42 0 47 4 189 141 85 84 149 138 154 133 5 -5 18 -48 29 -96 15 -65 18
-94 11 -113 -6 -15 -10 -36 -10 -48 0 -42 -56 -141 -107 -188 -82 -77 -161
-109 -268 -109 -151 0 -272 76 -341 214 -31 63 -34 76 -34 156 0 105 24 183
76 246 95 116 258 169 403 131z"></path>
<path d="M3510 23418 c-147 -15 -348 -60 -445 -99 -11 -4 -31 -11 -45 -15 -24
-6 -105 -42 -200 -87 -25 -12 -69 -36 -98 -54 -29 -18 -55 -33 -57 -33 -8 0
-183 -128 -259 -190 -134 -109 -434 -448 -500 -565 -9 -17 -30 -52 -47 -80
-175 -291 -269 -652 -269 -1038 0 -346 68 -653 208 -937 124 -252 237 -408
441 -608 138 -135 242 -221 372 -307 99 -66 307 -175 333 -175 8 0 17 -4 21
-9 3 -5 20 -13 37 -17 18 -3 39 -10 48 -14 61 -29 236 -73 401 -99 85 -14 538
-14 632 -1 314 45 627 160 861 316 32 21 66 44 75 49 31 19 138 104 229 182
103 88 251 260 343 398 145 218 264 505 313 758 41 208 48 290 43 502 -4 230
-26 388 -76 565 -113 393 -350 756 -686 1050 -109 95 -147 123 -279 205 -359
222 -712 318 -1153 314 -87 -1 -196 -6 -243 -11z m540 -263 c163 -24 202 -33
320 -70 107 -34 273 -109 380 -172 246 -143 534 -433 688 -693 51 -86 117
-223 127 -263 4 -15 11 -30 16 -33 5 -3 9 -14 9 -25 0 -10 4 -27 9 -37 20 -36
57 -199 80 -350 14 -92 14 -411 1 -505 -37 -252 -86 -418 -180 -612 -94 -192
-260 -427 -369 -520 -19 -16 -64 -56 -100 -88 -36 -32 -119 -94 -184 -137
-321 -216 -669 -320 -1073 -320 -506 -1 -904 152 -1282 492 -170 154 -304 316
-392 473 -180 322 -250 593 -250 963 0 329 52 554 191 833 80 159 183 299 353
481 189 201 334 310 561 423 167 83 329 131 550 164 98 14 439 12 545 -4z"></path>
<path d="M3675 22785 c-27 -15 -59 -35 -71 -46 -11 -10 -23 -19 -26 -19 -3 0
-21 15 -40 34 -38 38 -75 52 -113 42 -34 -9 -93 -70 -207 -216 -54 -69 -129
-165 -168 -214 -73 -92 -81 -116 -56 -164 23 -44 56 -68 136 -97 41 -15 89
-33 105 -40 61 -26 171 -65 183 -65 7 0 17 11 21 23 12 31 52 49 192 87 165
45 233 56 261 43 26 -12 50 -55 68 -123 7 -25 18 -65 25 -90 7 -25 21 -76 31
-113 14 -55 22 -71 42 -78 13 -5 28 -7 33 -3 5 3 9 38 9 77 0 91 7 117 31 117
18 0 19 -10 19 -144 0 -80 -4 -147 -9 -151 -5 -3 -58 2 -117 10 -59 8 -138 15
-175 15 -57 0 -72 -4 -96 -24 -41 -35 -57 -93 -39 -137 28 -67 73 -85 246 -99
52 -4 151 -13 219 -20 115 -12 126 -12 158 5 20 11 43 36 55 58 18 37 20 56
17 271 -3 212 -5 236 -25 289 -30 77 -72 127 -136 163 l-53 29 -335 5 c-184 3
-344 9 -355 14 -11 4 -29 12 -40 17 -11 5 -45 18 -75 28 -31 11 -56 26 -58 35
-4 18 152 219 173 224 9 2 19 -13 26 -40 25 -83 84 -148 162 -177 42 -16 142
-13 185 4 49 21 109 80 133 132 25 55 25 153 0 208 -39 86 -126 145 -226 152
-51 4 -67 1 -110 -22z"></path>
<path d="M3815 22060 c-11 -4 -38 -13 -60 -18 -60 -16 -156 -43 -193 -54 -32
-10 -34 -12 -28 -47 4 -20 11 -47 15 -61 9 -26 34 -116 51 -187 7 -26 17 -43
25 -43 8 0 15 6 15 14 0 17 73 84 106 96 14 6 61 10 105 10 43 0 79 2 79 5 0
2 -6 24 -14 47 -8 24 -24 82 -37 131 -26 102 -36 118 -64 107z"></path>
<path d="M3437 21843 c-2 -4 -1 -33 4 -63 4 -30 8 -482 9 -1005 1 -707 4 -959
13 -985 16 -46 87 -100 133 -100 41 0 103 36 130 76 18 28 19 55 22 642 l3
613 27 -3 27 -3 5 -610 c4 -475 8 -615 18 -633 20 -35 91 -82 124 -82 41 0
102 34 130 72 l23 33 3 450 c1 248 -1 585 -5 750 l-8 300 -70 8 c-241 26 -262
30 -307 53 -26 13 -59 24 -73 24 -14 0 -36 10 -49 23 -22 22 -32 49 -71 192
-9 33 -21 70 -26 83 -5 13 -9 40 -9 60 0 21 -4 42 -9 48 -5 5 -11 20 -13 33
-3 25 -22 39 -31 24z"></path>
<path d="M3460 18645 c-347 -41 -645 -156 -930 -359 -89 -64 -104 -75 -181
-143 -79 -68 -287 -292 -353 -378 -53 -70 -115 -158 -153 -220 -21 -34 -120
-238 -138 -285 -10 -25 -21 -54 -25 -65 -5 -11 -16 -45 -25 -75 -119 -390
-124 -780 -16 -1220 26 -105 93 -273 161 -405 184 -358 502 -693 865 -912 79
-47 288 -142 360 -164 22 -6 47 -15 57 -20 23 -12 259 -65 346 -78 93 -14 545
-14 631 0 161 26 306 62 411 100 47 17 94 34 105 37 10 3 60 25 110 50 49 24
99 48 110 53 11 5 32 17 46 27 15 9 48 30 75 47 77 46 288 206 296 223 2 4 27
27 56 52 30 24 84 81 122 126 66 79 200 258 200 269 0 2 16 30 36 62 44 68
131 251 166 348 55 152 96 327 117 496 14 109 14 450 1 554 -52 389 -189 724
-420 1024 -250 325 -539 552 -913 716 -154 67 -374 121 -589 145 -124 13 -393
11 -528 -5z m580 -261 c52 -9 118 -19 145 -24 53 -9 247 -70 305 -96 286 -130
498 -286 701 -515 62 -70 135 -163 169 -215 67 -102 180 -319 180 -344 0 -6 4
-18 9 -28 11 -21 34 -88 54 -162 76 -279 84 -626 20 -940 -17 -84 -20 -97 -64
-230 -88 -271 -299 -592 -506 -770 -336 -289 -625 -423 -1044 -485 -92 -14
-158 -16 -310 -12 -189 5 -248 11 -394 43 -91 20 -237 64 -249 75 -6 5 -16 9
-24 9 -7 0 -63 25 -123 55 -488 245 -875 704 -1016 1205 -108 384 -95 816 35
1175 85 235 218 441 433 670 121 129 175 178 276 253 262 193 496 289 833 341
99 15 466 12 570 -5z"></path>
<path d="M3172 18027 c-48 -48 -72 -80 -72 -96 0 -24 27 -142 41 -176 4 -11
10 -33 14 -50 8 -40 54 -195 65 -220 5 -11 16 -41 24 -67 9 -26 20 -56 25 -65
5 -10 23 -51 41 -92 18 -40 59 -120 91 -178 l59 -105 0 -309 0 -309 -25 -52
c-14 -28 -25 -57 -25 -64 0 -7 -7 -25 -15 -41 -15 -30 -50 -135 -65 -193 -5
-19 -18 -75 -30 -125 -12 -49 -26 -103 -31 -120 -4 -16 -13 -61 -20 -100 -6
-38 -15 -95 -20 -125 -5 -30 -14 -100 -20 -155 -5 -55 -14 -120 -19 -145 -5
-25 -12 -92 -15 -150 -5 -92 -4 -109 13 -140 21 -38 89 -80 130 -80 40 0 109
38 140 78 28 35 30 45 42 192 7 85 17 171 22 190 6 19 14 73 18 120 4 47 15
117 24 155 10 39 21 93 25 120 4 28 13 60 19 72 7 12 12 33 12 47 0 14 4 35 9
48 5 13 12 36 16 51 5 25 10 28 38 25 30 -3 32 -6 39 -53 4 -27 14 -140 23
-250 9 -110 20 -236 25 -280 5 -44 14 -133 20 -197 5 -64 15 -129 20 -143 6
-14 10 -39 10 -54 0 -15 13 -42 29 -61 28 -34 31 -35 97 -34 81 0 114 17 153
80 29 45 29 63 1 279 -5 44 -14 143 -19 220 -5 77 -14 169 -20 205 -15 92 -35
465 -26 480 5 7 12 50 16 94 5 45 13 113 18 151 6 39 10 112 11 163 0 72 3 92
14 92 8 0 53 -33 101 -74 90 -76 145 -103 187 -93 40 10 90 50 111 87 17 31
19 47 13 140 -11 169 -22 263 -34 293 -7 16 -12 42 -12 58 0 42 -33 101 -74
132 -71 55 -186 22 -229 -66 -10 -20 -23 -37 -28 -37 -23 0 -83 42 -121 85
-49 55 -99 89 -148 99 -75 15 -121 18 -150 7 -41 -14 -57 -6 -76 38 -9 20 -20
43 -25 51 -5 8 -12 22 -15 30 -3 8 -15 35 -27 60 -11 25 -23 59 -28 75 -4 17
-17 57 -29 90 -12 33 -26 74 -32 90 -6 17 -14 50 -18 75 -4 25 -19 85 -31 134
-23 86 -26 90 -75 127 -76 58 -95 54 -182 -34z"></path>
<path d="M3885 17851 c-163 -46 -259 -230 -194 -376 25 -56 80 -120 123 -142
17 -9 56 -22 86 -28 134 -27 257 37 311 162 20 48 26 169 10 201 -5 9 -15 30
-22 45 -20 43 -75 95 -124 117 -50 23 -145 33 -190 21z"></path>
<path d="M3540 13928 c-148 -21 -211 -33 -285 -53 -33 -9 -73 -20 -90 -25 -74
-20 -275 -105 -335 -140 -8 -5 -29 -17 -47 -26 -18 -9 -37 -22 -44 -30 -6 -8
-16 -14 -21 -14 -29 0 -297 -210 -378 -296 -30 -33 -95 -102 -144 -153 -177
-188 -350 -461 -417 -656 -7 -22 -16 -44 -20 -50 -3 -5 -14 -37 -24 -70 -9
-33 -21 -73 -27 -90 -12 -37 -23 -95 -48 -255 -25 -158 -27 -437 -5 -579 27
-169 60 -323 76 -353 5 -10 9 -24 9 -31 0 -18 55 -161 95 -245 19 -40 35 -75
35 -77 0 -3 18 -34 40 -70 22 -36 40 -68 40 -71 0 -3 34 -54 77 -112 273 -382
645 -676 1028 -814 270 -98 451 -128 772 -128 256 0 407 19 603 76 30 8 69 19
85 24 47 13 104 36 111 43 4 4 14 7 22 7 24 0 265 124 359 186 250 163 480
387 620 602 31 48 64 99 74 113 36 54 149 297 180 389 133 395 155 777 70
1225 -35 185 -148 465 -257 635 -240 375 -562 668 -929 845 -162 78 -360 144
-525 174 -214 38 -511 47 -700 19z m525 -253 c281 -37 483 -104 710 -235 390
-224 729 -627 862 -1025 46 -137 66 -220 93 -386 13 -86 13 -412 -1 -514 -31
-235 -83 -412 -180 -610 -135 -276 -303 -482 -549 -671 -231 -178 -549 -318
-830 -366 -91 -16 -545 -22 -635 -9 -337 50 -651 188 -910 402 -298 246 -518
557 -630 892 -37 112 -45 143 -71 287 -22 116 -30 448 -14 570 38 304 145 577
322 822 89 125 327 379 424 455 299 230 550 336 939 392 97 14 351 12 470 -4z"></path>
<path d="M3015 13040 c-3 -5 -39 -10 -80 -10 -52 0 -78 -4 -89 -15 -8 -9 -33
-15 -58 -15 -24 0 -52 -7 -62 -15 -11 -8 -34 -15 -51 -15 -17 0 -35 -4 -40 -9
-6 -5 -23 -11 -40 -13 l-30 -3 -3 -80 c-3 -78 0 -90 39 -167 5 -10 9 -28 9
-42 0 -13 7 -29 15 -36 8 -7 15 -23 15 -35 0 -13 8 -38 17 -57 31 -61 33 -68
33 -87 0 -10 7 -24 15 -31 8 -7 15 -20 15 -30 0 -10 7 -23 15 -30 8 -7 29 -38
47 -69 31 -55 192 -231 211 -231 6 0 25 -11 43 -25 18 -14 37 -25 42 -25 5 0
15 -7 22 -15 7 -8 28 -15 46 -15 19 0 34 -4 34 -10 0 -6 77 -10 211 -10 l210
0 35 26 c30 23 34 32 34 70 0 68 -22 84 -119 84 -58 0 -82 -4 -91 -15 -9 -10
-32 -15 -75 -15 -43 0 -66 5 -75 15 -7 8 -27 15 -45 15 -36 0 -87 22 -128 57
-16 12 -33 23 -39 23 -15 0 -117 102 -118 117 0 7 -13 27 -28 45 -15 18 -45
69 -66 113 -21 44 -42 87 -47 95 -5 8 -12 22 -15 30 -3 8 -10 23 -15 32 -5 10
-9 27 -9 38 0 11 -7 31 -16 45 -8 13 -14 38 -12 57 3 30 6 34 43 39 22 3 53
11 70 18 16 7 43 11 60 10 16 -2 40 3 52 9 34 19 382 16 409 -3 12 -8 24 -12
26 -10 3 3 27 -4 54 -16 55 -25 204 -163 204 -190 0 -9 7 -22 15 -29 8 -7 15
-25 15 -41 0 -15 5 -31 10 -34 12 -7 14 -195 2 -195 -4 0 -32 25 -62 56 -30
30 -71 65 -90 77 -19 12 -50 36 -69 54 -19 18 -38 33 -44 33 -5 0 -25 14 -44
30 -18 17 -38 30 -44 30 -5 0 -18 8 -29 18 -10 9 -36 25 -57 36 -21 10 -45 22
-53 27 -8 5 -22 12 -30 16 -8 4 -32 17 -52 30 -53 32 -142 33 -169 1 -30 -37
-25 -89 14 -126 18 -18 40 -32 49 -32 9 0 19 -4 23 -9 3 -6 30 -22 60 -36 30
-15 59 -33 66 -41 6 -8 17 -14 23 -14 6 0 26 -14 45 -30 18 -17 39 -30 46 -30
6 0 22 -11 35 -25 13 -14 28 -25 34 -25 12 0 114 -88 186 -160 89 -90 170
-196 170 -225 0 -8 4 -17 10 -20 30 -19 49 -109 53 -260 l2 -70 -397 -5 -396
-5 -21 -27 c-20 -25 -21 -38 -21 -236 l0 -210 38 -30 c24 -20 52 -32 78 -34
l39 -3 3 -55 c2 -30 7 -59 13 -64 5 -6 9 -30 9 -55 0 -26 7 -55 15 -65 8 -11
15 -39 15 -62 0 -24 5 -46 10 -49 6 -3 10 -30 10 -59 0 -35 5 -58 15 -66 9 -7
15 -30 15 -54 0 -22 7 -50 15 -60 8 -11 15 -41 15 -67 0 -26 5 -51 10 -54 6
-3 10 -22 10 -41 l0 -34 613 2 612 3 5 47 c3 27 11 53 18 60 7 7 12 36 12 64
0 29 5 56 10 59 6 3 10 23 10 43 0 20 7 50 15 66 8 15 15 47 15 70 0 23 7 51
15 62 8 10 15 38 15 61 0 23 5 45 10 48 6 3 10 30 10 59 0 35 5 58 15 66 8 7
15 28 15 46 0 32 2 34 33 34 17 0 47 9 65 20 l32 20 0 233 c0 214 -2 235 -18
250 -17 15 -60 17 -409 17 -353 0 -391 2 -397 16 -4 9 0 27 9 40 8 13 15 29
15 35 0 19 33 89 42 89 4 0 8 6 8 13 0 19 60 88 71 82 5 -4 9 -24 9 -46 0 -33
4 -41 24 -49 13 -5 27 -14 31 -19 3 -6 21 -11 39 -11 17 0 37 -5 42 -10 7 -7
76 -9 200 -7 203 5 257 11 275 33 6 8 17 14 25 14 36 0 231 176 283 255 34 53
81 145 81 159 0 7 5 17 12 24 14 14 38 80 38 107 0 11 7 29 15 39 8 11 15 28
15 38 0 10 5 18 10 18 6 0 10 22 10 49 0 45 -4 53 -32 75 -18 13 -45 28 -61
31 -15 4 -30 11 -33 16 -3 5 -25 9 -48 9 -27 0 -48 6 -56 15 -8 10 -31 15 -71
15 -32 0 -61 5 -64 10 -4 6 -90 10 -225 10 -135 0 -221 -4 -225 -10 -3 -5 -21
-10 -40 -10 -19 0 -37 -5 -40 -10 -3 -6 -27 -19 -53 -31 -54 -24 -182 -145
-182 -171 0 -10 -4 -18 -8 -18 -12 0 -42 -56 -42 -78 0 -11 -7 -25 -15 -32 -8
-7 -15 -27 -15 -46 0 -18 -4 -36 -10 -39 -5 -3 -10 -46 -10 -94 0 -74 -3 -91
-19 -105 -26 -24 -55 -17 -59 14 -2 14 -15 39 -28 57 -28 37 -29 46 -9 63 9 8
15 29 15 56 0 23 5 46 10 49 6 4 10 65 10 150 0 85 -4 146 -10 150 -5 3 -10
21 -10 39 0 19 -7 39 -15 46 -8 7 -15 21 -15 31 0 11 -4 19 -10 19 -5 0 -10 8
-10 19 0 10 -7 24 -15 31 -8 7 -15 18 -15 24 0 15 -110 126 -125 126 -7 0 -20
9 -30 20 -22 24 -94 60 -122 60 -11 0 -26 7 -33 15 -7 9 -29 15 -51 15 -21 0
-41 5 -44 10 -4 6 -82 10 -200 10 -118 0 -196 -4 -200 -10z m1753 -526 c56 -3
102 -9 102 -15 0 -5 20 -9 44 -9 26 0 48 -6 56 -15 7 -8 21 -15 31 -15 20 0
26 -24 9 -35 -5 -3 -10 -17 -10 -29 0 -13 -7 -29 -15 -36 -8 -7 -15 -18 -15
-25 0 -16 -29 -73 -41 -80 -5 -4 -9 -14 -9 -24 0 -10 -11 -28 -25 -41 -14 -13
-25 -28 -25 -34 0 -14 -111 -126 -125 -126 -7 0 -22 -11 -35 -25 -25 -26 -62
-41 -145 -57 -94 -18 -137 -20 -148 -9 -6 6 -32 11 -57 11 -25 0 -50 4 -55 9
-6 6 -32 11 -59 13 -28 2 -51 8 -54 16 -2 6 3 12 11 12 8 0 25 11 38 25 13 13
31 25 40 25 8 0 26 11 39 25 13 14 31 25 41 25 10 0 21 4 24 10 5 8 36 24 85
44 8 3 22 10 30 14 42 24 61 32 79 32 10 0 24 6 30 14 6 8 24 16 39 19 33 6
88 25 122 43 21 11 25 21 28 65 4 72 -21 99 -94 99 -34 0 -56 -5 -64 -15 -7
-8 -24 -15 -39 -15 -14 0 -35 -7 -45 -15 -11 -8 -28 -15 -38 -15 -17 0 -36 -8
-78 -32 -8 -4 -22 -11 -30 -14 -40 -15 -125 -60 -128 -66 -2 -5 -11 -8 -20 -8
-8 0 -24 -7 -34 -17 -17 -15 -18 -15 -18 4 0 22 26 80 41 88 5 4 9 14 9 23 0
22 80 102 101 102 10 0 20 4 24 9 12 21 71 41 119 41 28 0 58 5 66 10 8 6 33
8 55 4 22 -3 86 -8 143 -10z m-133 -1144 l0 -85 -734 -3 c-581 -2 -736 0 -743
10 -9 15 -11 129 -2 152 6 15 78 16 743 14 l736 -3 0 -85z m-149 -284 c3 -8
-2 -28 -10 -45 -9 -16 -16 -50 -16 -75 0 -25 -4 -48 -10 -51 -5 -3 -10 -23
-10 -43 0 -20 -7 -50 -15 -66 -8 -15 -15 -50 -15 -76 0 -30 -6 -52 -15 -60 -9
-7 -15 -29 -15 -54 0 -23 -4 -46 -9 -52 -6 -5 -11 -29 -13 -54 l-3 -45 -457
-3 -458 -2 0 24 c0 13 -7 29 -15 36 -9 8 -15 30 -15 59 0 25 -7 55 -15 65 -8
11 -15 41 -15 67 0 26 -4 51 -10 54 -5 3 -10 25 -10 48 0 23 -7 51 -15 61 -9
12 -15 42 -15 73 0 29 -4 53 -10 53 -5 0 -10 23 -10 50 l0 50 585 0 c495 0
586 -2 591 -14z"></path>
<path d="M3520 9189 c-164 -19 -360 -62 -455 -100 -11 -4 -31 -11 -45 -15 -24
-6 -105 -42 -200 -87 -25 -12 -69 -36 -98 -54 -29 -18 -55 -33 -57 -33 -8 0
-142 -97 -235 -171 -78 -62 -238 -224 -368 -373 -192 -219 -368 -576 -423
-856 -36 -183 -42 -231 -46 -428 -5 -206 7 -358 37 -482 4 -19 14 -60 20 -90
50 -226 193 -535 344 -740 153 -209 396 -440 613 -583 127 -83 371 -207 409
-207 8 0 22 -4 32 -9 55 -29 234 -74 403 -101 86 -13 552 -13 638 0 339 54
616 159 881 332 252 166 457 368 623 616 79 117 186 334 231 466 55 158 76
250 111 467 20 129 20 451 0 568 -8 47 -20 115 -26 151 -38 222 -141 486 -270
692 -156 249 -417 523 -639 672 -238 159 -440 251 -690 316 -203 52 -565 74
-790 49z m525 -264 c165 -23 205 -32 330 -73 320 -105 582 -278 822 -544 208
-231 316 -412 401 -678 71 -220 92 -359 92 -605 0 -418 -103 -764 -325 -1095
-90 -134 -169 -225 -293 -336 -368 -330 -799 -494 -1300 -494 -478 0 -874 142
-1216 435 -411 353 -637 759 -696 1250 -16 131 -8 482 14 585 40 191 71 289
133 423 94 203 177 321 379 539 112 121 174 178 265 245 66 49 136 98 157 110
64 38 255 130 307 148 28 9 59 21 70 25 11 5 31 11 45 14 14 3 57 13 95 22 39
9 108 22 155 29 118 17 441 18 565 0z"></path>
<path d="M2772 7983 c-110 -48 -170 -103 -218 -199 -21 -41 -44 -80 -51 -86
-10 -8 -13 -133 -13 -627 l0 -616 50 -99 c54 -108 74 -134 135 -175 62 -42
123 -63 209 -72 46 -5 83 -13 87 -21 5 -7 9 -59 9 -114 0 -65 5 -114 14 -135
19 -45 69 -91 134 -123 48 -24 55 -25 80 -13 15 8 44 23 65 33 21 11 133 96
249 191 l211 171 516 5 c543 4 550 5 641 52 44 23 108 83 136 127 14 21 35 72
49 115 14 42 30 82 36 89 7 8 10 198 10 584 -1 493 -3 573 -16 586 -8 8 -20
34 -26 57 -31 117 -119 214 -246 268 l-78 34 -950 2 -950 3 -83 -37z m2019
-226 c19 -12 43 -40 54 -62 19 -39 20 -60 20 -640 0 -580 -1 -601 -20 -640
-14 -28 -33 -47 -65 -62 -44 -23 -45 -23 -567 -23 -392 0 -529 -3 -550 -12
-30 -13 -111 -77 -311 -246 -68 -57 -129 -101 -135 -99 -8 2 -14 45 -17 123
-8 195 -39 226 -237 234 -102 4 -126 8 -149 26 -45 33 -67 70 -75 126 -11 76
-10 1071 0 1145 11 72 39 119 85 139 25 11 206 13 982 14 l951 0 34 -23z"></path>
<path d="M3158 7210 c-61 -33 -83 -73 -83 -157 0 -64 3 -75 30 -109 21 -25 48
-43 86 -57 l55 -19 57 27 c78 36 107 80 107 159 0 71 -24 116 -81 152 -48 30
-118 32 -171 4z"></path>
<path d="M3706 7202 c-57 -40 -78 -84 -74 -157 5 -78 30 -114 105 -150 53 -25
60 -26 97 -14 98 33 152 105 142 192 -14 129 -166 202 -270 129z"></path>
<path d="M4274 7205 c-43 -26 -94 -107 -94 -149 0 -55 61 -138 119 -162 149
-63 302 110 216 246 -55 87 -158 115 -241 65z"></path>
<path d="M3520 4448 c-120 -14 -273 -46 -415 -88 -105 -30 -278 -108 -383
-172 -34 -21 -65 -38 -67 -38 -7 0 -171 -118 -209 -150 -111 -94 -279 -263
-372 -375 -104 -125 -226 -307 -268 -400 -10 -22 -27 -58 -38 -80 -191 -390
-234 -988 -102 -1445 8 -30 19 -68 24 -85 45 -165 162 -397 293 -582 166 -236
402 -459 662 -625 84 -54 314 -167 370 -182 11 -2 40 -12 65 -21 301 -112 773
-138 1140 -63 403 81 718 244 1052 543 197 177 399 468 512 740 9 22 21 48 26
57 6 10 10 24 10 33 0 8 6 29 14 47 8 18 19 51 25 73 6 22 17 65 25 95 89 334
89 754 -1 1105 -46 180 -147 422 -232 555 -116 183 -312 416 -451 536 -84 72
-278 212 -355 254 -152 85 -373 180 -417 180 -9 0 -20 5 -23 10 -3 6 -14 10
-24 10 -10 0 -41 6 -67 14 -52 15 -189 39 -317 56 -92 12 -370 11 -477 -2z
m481 -259 c340 -42 614 -149 883 -341 400 -287 686 -722 769 -1168 9 -47 21
-112 27 -144 5 -33 10 -141 10 -241 0 -371 -72 -665 -235 -962 -84 -154 -247
-370 -331 -438 -25 -21 -60 -51 -78 -68 -87 -81 -268 -204 -401 -270 -65 -32
-86 -42 -170 -77 -96 -40 -196 -67 -375 -100 -135 -25 -507 -28 -640 -5 -152
26 -374 88 -386 106 -3 5 -12 9 -21 9 -24 0 -179 79 -283 144 -438 273 -763
720 -873 1201 -37 161 -47 260 -47 456 0 241 25 397 97 609 34 100 138 317
168 350 8 9 15 20 15 24 0 22 157 213 289 351 216 225 454 382 721 475 67 24
91 30 200 56 170 40 482 56 661 33z"></path>
<path d="M3591 3568 c-50 -27 -66 -62 -71 -166 l-5 -97 -430 -6 c-236 -3 -442
-9 -457 -13 -15 -5 -38 -25 -53 -46 l-26 -37 3 -469 3 -470 23 -28 c44 -56 39
-56 505 -58 l432 -3 5 -665 c4 -494 8 -670 17 -686 28 -49 50 -54 246 -54
l183 0 32 33 32 33 2 669 3 670 345 5 c391 6 365 0 443 92 102 119 294 343
318 372 26 32 59 92 59 108 0 10 -146 194 -158 200 -4 2 -23 23 -42 48 -18 25
-54 68 -79 96 -25 28 -70 78 -100 113 -29 34 -65 68 -80 74 -17 8 -137 14
-366 17 l-340 5 -3 101 c-3 101 -3 101 -38 135 l-35 34 -172 3 c-124 2 -179
-1 -196 -10z m227 -235 c-3 -25 -7 -28 -46 -31 -31 -2 -44 1 -48 12 -12 32 4
46 51 46 45 0 46 -1 43 -27z m865 -270 c14 -21 42 -56 62 -78 21 -22 61 -69
90 -105 29 -36 62 -74 75 -85 12 -11 26 -28 31 -37 10 -18 5 -24 -222 -296
l-55 -67 -947 -3 -947 -2 0 348 c0 192 3 352 7 355 3 4 428 7 943 7 l937 0 26
-37z m-865 -1494 l2 -587 -21 -5 c-12 -3 -35 -3 -50 0 l-29 6 0 582 c0 320 3
585 7 589 4 4 25 6 48 4 l40 -3 3 -586z"></path>
</g>
</svg>